<?xml version="1.0" standalone="no"?><!DOCTYPE svg PUBLIC "-//W3C//DTD SVG 1.1//EN" "http://www.w3.org/Graphics/SVG/1.1/DTD/svg11.dtd"><svg t="1552547246294" class="icon" style="" viewBox="0 0 1245 1024" version="1.1" xmlns="http://www.w3.org/2000/svg" p-id="2749" xmlns:xlink="http://www.w3.org/1999/xlink" width="243.1640625" height="200"><defs><style type="text/css"></style></defs><path d="M744.703144 492.870823l-43.424985 86.810706-121.951176-243.86309A39.106044 39.106044 0 0 0 544.225775 314.105947a39.145307 39.145307 0 0 0-35.101208 21.712492L441.434989 471.158331H112.370981v78.526192h353.367865c14.919977 0 28.465745-8.363039 35.101208-21.712492l43.424984-86.810705 121.951177 243.86309a39.18457 39.18457 0 0 0 70.202415 0L804.068945 549.684523h329.103272v-78.526192h-353.367865a39.18457 39.18457 0 0 0-35.101208 21.712492z" fill="#66CCFF" p-id="2750"></path><path d="M539.47494 989.391937a117.592973 117.592973 0 0 0 166.554054 0l443.358881-443.358882c63.213585-63.449163 95.99827-151.398499 96.11606-238.601835 0-71.105467-22.222912-142.839144-70.987678-198.985371A312.73056 312.73056 0 0 0 936.856736 0.001178c-20.613125 0-41.461829 1.963155-62.349797 5.967991-64.980424 12.524928-121.440756 47.469083-165.847317 91.875644L622.751967 183.752468l-85.907654-85.907655C492.398488 53.438252 435.977419 18.494096 370.996995 5.969169A330.202638 330.202638 0 0 0 308.686462 0.001178a312.887613 312.887613 0 0 0-237.698784 108.444671C22.222912 164.63134 0 236.365016 0 307.43122c0.117789 87.164073 32.902475 175.113409 96.116059 238.601835L539.47494 989.391937zM130.274953 159.959031A234.008053 234.008053 0 0 1 308.686462 78.52737c15.626712 0 31.528266 1.491998 47.586872 4.554519 46.055612 8.75567 89.559122 34.708577 125.092224 70.280942l113.666663 113.666663c7.302936 7.302936 17.432815 11.504087 27.759009 11.504088s20.456073-4.201151 27.759009-11.504088l113.666664-113.666663c35.533102-35.572365 79.036612-61.525272 125.092224-70.280942A253.718127 253.718127 0 0 1 936.856736 78.52737a234.086579 234.086579 0 0 1 178.411509 81.431661l29.643637-25.756591-29.643637 25.756591c34.551525 39.734253 51.709498 92.464591 51.74876 147.511452 0.117789 67.375473-26.267011 136.439259-73.107884 183.044554L650.550239 933.873919a38.988254 38.988254 0 0 1-27.759009 11.504087 38.988254 38.988254 0 0 1-27.759009-11.504087L151.634077 490.515037C104.793203 443.909742 78.408403 374.806693 78.526192 307.43122c0-55.007598 17.197236-107.777199 51.748761-147.472189z" fill="#f26996" p-id="2751"></path></svg>
